<svg id="Layer_1" data-name="Layer 1" xmlns="http://www.w3.org/2000/svg" xmlns:xlink="http://www.w3.org/1999/xlink" viewBox="0 0 480.09 348.52"><defs><linearGradient id="New_Gradient_Swatch_2" x1="189.21" y1="276.35" x2="189.21" y2="149.8" gradientTransform="matrix(1, 0, -0.18, 1, 24.82, 0)" gradientUnits="userSpaceOnUse"><stop offset="0" stop-color="#2988e2"/><stop offset="0.19" stop-color="#2798ca"/><stop offset="0.74" stop-color="#21c289"/><stop offset="1" stop-color="#1fd370"/></linearGradient><linearGradient id="linear-gradient" x1="371.79" y1="161.28" x2="371.79" y2="7.28" gradientUnits="userSpaceOnUse"><stop offset="0" stop-color="#f7a61e"/><stop offset="0.49" stop-color="#fbc220"/><stop offset="1" stop-color="#ffdb22"/></linearGradient></defs><title>activities</title><rect x="180.08" y="200.89" width="276.16" height="7.24" rx="3.35" ry="3.35" style="fill:#ddd"/><rect x="183.69" y="193.66" width="276.16" height="7.24" rx="3.35" ry="3.35" style="fill:#f74e1e"/><rect x="183.69" y="206.8" width="276.16" height="7.24" rx="3.35" ry="3.35" style="fill:#f74e1e"/><rect x="176.46" y="214.31" width="276.16" height="43.2" rx="8.18" ry="8.18" style="fill:#242444"/><rect x="203.93" y="257.63" width="276.16" height="31.78" rx="7.02" ry="7.02" style="fill:#ffdb22"/><path d="M261.33,288.4H65.76c-7.49,0-12.53-6.13-11.21-13.61L75.88,153.84c1.32-7.49,8.53-13.61,16-13.61H287.46c7.49,0,12.53,6.13,11.21,13.61L277.34,274.78C276,282.27,268.82,288.4,261.33,288.4Z" style="fill:#eee"/><rect y="276.35" width="276.16" height="13.06" rx="4.5" ry="4.5" style="fill:#ddd"/><polygon points="266.04 276.35 64.57 276.35 86.88 149.8 288.35 149.8 266.04 276.35" style="fill:url(#New_Gradient_Swatch_2)"/><path d="M97.12,276.35c6.64-37.66,39.83-52.75,77.49-52.75s65.53,15.09,58.89,52.75" style="fill:#2988e2"/><path d="M205.17,200.57c-3.83,21.7-18,34.88-32.65,34.88s-24.18-13.18-20.35-34.88,18.79-39.29,33.43-39.29S209,178.87,205.17,200.57Z" style="fill:#ffe5d2"/><g style="opacity:0.5"><polygon points="258.54 268.22 237.35 268.22 241.09 247.04 262.27 247.04 258.54 268.22" style="fill:#ddd"/><polygon points="235.59 268.22 214.41 268.22 218.15 247.04 239.33 247.04 235.59 268.22" style="fill:#ddd"/><polygon points="212.65 268.22 191.47 268.22 195.21 247.04 216.39 247.04 212.65 268.22" style="fill:#ddd"/></g><path d="M210.59,169.83s-4.93,17.93-29.3,17.93c-14.64,0-21.8-7.88-21.8-7.88S171.38,161,186,161A40,40,0,0,1,210.59,169.83Z" style="fill:#8c7f79"/><text transform="translate(433.79 281.08)" style="font-size:21.687511444091797px;fill:#242444;font-family:ProximaNova-Bold, Proxima Nova;font-weight:700">JS</text><text transform="translate(332.83 247.04)" style="font-size:18.072925567626953px;fill:#fff;font-family:ProximaNova-Bold, Proxima Nova;font-weight:700">Clean Code</text><rect x="321.77" y="160.98" width="100.86" height="32.68" style="fill:#242444"/><path d="M426.33,40.51c0-10.05-8-18.63-19.22-22,.18-3.68.29-7.42.29-11.22H337c0,3.72.1,7.38.28,11-11.64,3.2-20,11.95-20,22.24,0,12.5,12.36,22.73,27.91,23.48C350.1,78.92,357,89.68,364.77,93.91h0v67.37h15.7V93.91h-.83c7.82-4.24,14.68-15,19.62-30C414.4,62.89,426.33,52.79,426.33,40.51Zm-100,0c0-5.61,4.83-10.58,11.65-13a180,180,0,0,0,4.52,27.13C333.34,53.16,326.29,47.29,326.29,40.51Zm75.69,14a179.91,179.91,0,0,0,4.45-26.69c6.41,2.5,10.86,7.32,10.86,12.71C417.29,47.08,410.68,52.78,402,54.49Z" style="fill:url(#linear-gradient)"/></svg>