<?xml version="1.0" encoding="utf-8"?>
<!-- Generator: Adobe Illustrator 21.0.2, SVG Export Plug-In . SVG Version: 6.00 Build 0)  -->
<svg version="1.1" id="Layer_1" xmlns="http://www.w3.org/2000/svg" xmlns:xlink="http://www.w3.org/1999/xlink" x="0px" y="0px"
	 viewBox="0 0 810.9 450" style="enable-background:new 0 0 810.9 450;" xml:space="preserve">
<style type="text/css">
	.st0{fill:#EDEDED;}
	.st1{fill:url(#SVGID_1_);}
	.st2{fill:url(#SVGID_2_);}
	.st3{opacity:0.3;fill:#FFFFFF;enable-background:new    ;}
	.st4{opacity:0.3;fill:#242444;enable-background:new    ;}
	.st5{fill:url(#SVGID_3_);}
	.st6{opacity:0.2;fill:#FFFFFF;enable-background:new    ;}
	.st7{fill:url(#SVGID_4_);}
	.st8{fill:#242444;}
</style>
<path class="st0" d="M100.4,320.2L210,257.3c3.3-1.9,8.3-0.9,11.6,1l183.8,106.1c3,1.8,3,5.1,0,6.9l-111.7,64.1
	c-3.3,1.9-8.4,0.9-11.7-1.1L100.3,329.1C97.3,327.3,97.3,322,100.4,320.2z"/>
<path class="st0" d="M447.1,247.9l-78.2,44.7c-1.8,1-3.9,1-5.7,0L328,271.9c-2.4-1.4-2.4-4.8,0-6.2l77.4-44.7c1.7-1,3.9-1,5.7,0
	l36.1,20.7C449.5,243.1,449.5,246.6,447.1,247.9z"/>
<path class="st0" d="M629.7,447.9L404.4,314.4c-4.3-2.6-4.3-8.9,0.1-11.4l175.4-101c4.8-2.7,10.6-2.7,15.4,0.1l207.5,121.7
	c9.9,5.8,10.1,20.1,0.3,26.2l-157.6,97.7C640.7,450.7,634.6,450.8,629.7,447.9z"/>
<linearGradient id="SVGID_1_" gradientUnits="userSpaceOnUse" x1="1027.7942" y1="74.3244" x2="1027.7942" y2="424.2487" gradientTransform="matrix(-1 0 0 -1 1714.9481 424.2487)">
	<stop  offset="0" style="stop-color:#1FD370"/>
	<stop  offset="0.1912" style="stop-color:#21C388"/>
	<stop  offset="0.7407" style="stop-color:#2799C9"/>
	<stop  offset="1" style="stop-color:#2988E2"/>
</linearGradient>
<path class="st1" d="M810.9,332.2V138.5c0-4.4-2.3-8.4-6.1-10.6L585.2,1c-5-2.9-11.3,0.7-11.3,6.5v189.9c0,4.4-2.4,9.5-10.4,14.1
	l239.2,138.4C809.7,344.9,810.9,338.1,810.9,332.2z"/>
<linearGradient id="SVGID_2_" gradientUnits="userSpaceOnUse" x1="1327.4379" y1="211.0744" x2="1327.4379" y2="137.9744" gradientTransform="matrix(-1 0 0 -1 1714.9481 424.2487)">
	<stop  offset="0" style="stop-color:#FFE82A"/>
	<stop  offset="0.2861" style="stop-color:#FFBF2A"/>
	<stop  offset="0.771" style="stop-color:#FF7E2A"/>
	<stop  offset="1" style="stop-color:#FF652A"/>
</linearGradient>
<path class="st2" d="M447.1,240.8l-78.2,44.7c-1.8,1-3.9,1-5.7,0L328,264.8c-2.4-1.4-2.4-4.8,0-6.2l77.4-44.7c1.7-1,3.9-1,5.7,0
	l36.1,20.7C449.5,236,449.5,239.4,447.1,240.8z"/>
<path class="st3" d="M641.2,234V33.3L585.3,1c-5-2.9-11.3,0.7-11.3,6.5v189.9c0,4.4-2.4,9.5-10.4,14.1l69.4,40.2
	C639.9,246.7,641.2,239.8,641.2,234z"/>
<path class="st3" d="M586.6,72.3l44.3,25.6c1,0.6,1.6,1.6,1.6,2.7v4.8c0,1.2-1.3,2-2.4,1.4l-44.3-25.6c-1-0.6-1.6-1.6-1.6-2.7v-4.8
	C584.1,72.4,585.5,71.7,586.6,72.3z"/>
<path class="st3" d="M586.6,89.8l44.3,25.6c1,0.6,1.6,1.6,1.6,2.7v4.8c0,1.2-1.3,2-2.4,1.4l-44.3-25.6c-1-0.6-1.6-1.6-1.6-2.7v-4.8
	C584.1,89.9,585.5,89.2,586.6,89.8z"/>
<path class="st3" d="M586.6,107.3l44.3,25.6c1,0.6,1.6,1.6,1.6,2.7v4.8c0,1.2-1.3,2-2.4,1.4l-44.3-25.6c-1-0.6-1.6-1.6-1.6-2.7v-4.8
	C584.1,107.4,585.5,106.6,586.6,107.3z"/>
<path class="st3" d="M586.6,17.3l44.3,25.6c1,0.6,1.6,1.6,1.6,2.7v20.8c0,1.2-1.3,2-2.4,1.4l-44.3-25.6c-1-0.6-1.6-1.6-1.6-2.7V18.7
	C584.1,17.4,585.5,16.7,586.6,17.3z"/>
<path class="st4" d="M793,196.4c0.3,0.3-0.1,0.8-0.5,0.6l-63-36.4c-3.5-2-6.4-6.6-6.4-10.1v-35.4c0-3.5,2.9-4.7,6.4-2.7l52.8,30.5
	c3.5,2,6.4,6.6,6.4,10.1v33.1C788.7,189.1,790.5,193.3,793,196.4z"/>
<path class="st4" d="M722.6,212.9L657,175.1c6.3,0,6.3-2.8,6.3-6.3v-31.7c0-3.5,2.9-4.7,6.4-2.7l52.8,30.5c3.5,2,6.4,6.6,6.4,10.1
	v35.2C729,213.8,726.1,215,722.6,212.9z"/>
<linearGradient id="SVGID_3_" gradientUnits="userSpaceOnUse" x1="252.8102" y1="-1.1899" x2="252.8102" y2="178.9439" gradientTransform="matrix(1 0 0 -1 0 424.2487)">
	<stop  offset="0" style="stop-color:#9E7FFF"/>
	<stop  offset="0.2098" style="stop-color:#8381F8"/>
	<stop  offset="0.7466" style="stop-color:#4286E8"/>
	<stop  offset="1" style="stop-color:#2988E2"/>
</linearGradient>
<path class="st5" d="M100.4,309.2L210,246.3c3.3-1.9,8.3-0.9,11.6,1l183.8,106.1c3,1.8,3,5.1,0,6.9l-111.7,64.1
	c-3.3,1.9-8.4,0.9-11.7-1.1L100.3,318.1C97.3,316.3,97.3,311,100.4,309.2z"/>
<path class="st4" d="M112.1,312.2L213,253.9c1.4-0.8,3.1-0.8,4.5,0l56.5,32.6c1,0.6,1,2.1,0,2.7l-100.9,58.3c-1.4,0.8-3.1,0.8-4.5,0
	l-56.5-32.6C111,314.3,111,312.8,112.1,312.2z"/>
<g>
	<path class="st6" d="M251.5,363.3l-23.9,13.8c-2.1,1.2-5.8,1.1-8.2-0.3l-27.5-15.9c-2.4-1.4-2.7-3.5-0.6-4.7l23.9-13.8
		c2.1-1.2,5.8-1.1,8.2,0.3l27.6,15.9C253.3,360,253.5,362.1,251.5,363.3z"/>
	<path class="st6" d="M292.6,306.6l-56.5,32.6c-0.7,0.4-2,0.4-2.8-0.1l-4.8-2.8c-0.8-0.5-0.9-1.2-0.2-1.6l56.5-32.6
		c0.7-0.4,2-0.4,2.8,0.1l4.8,2.8C293.2,305.5,293.3,306.2,292.6,306.6z"/>
	<path class="st6" d="M304.4,313.5l-56.5,32.6c-0.7,0.4-2,0.4-2.8-0.1l-4.8-2.8c-0.8-0.5-0.9-1.2-0.2-1.6l56.5-32.6
		c0.7-0.4,2-0.4,2.8,0.1l4.8,2.8C305,312.4,305.1,313.1,304.4,313.5z"/>
	<path class="st6" d="M297.2,390.1l-23.9,13.8c-2.1,1.2-5.8,1.1-8.2-0.3l-27.6-15.9c-2.4-1.4-2.7-3.5-0.6-4.7l23.9-13.8
		c2.1-1.2,5.8-1.1,8.2,0.3l27.6,15.9C299,386.8,299.3,388.9,297.2,390.1z"/>
	<path class="st6" d="M338.4,333.4L281.9,366c-0.7,0.4-2,0.4-2.8-0.1l-4.8-2.8c-0.8-0.5-0.9-1.2-0.2-1.6l56.5-32.6
		c0.7-0.4,2-0.4,2.8,0.1l4.8,2.8C339,332.3,339.1,333,338.4,333.4z"/>
	<path class="st6" d="M350.1,340.3l-56.5,32.6c-0.7,0.4-2,0.4-2.8-0.1L286,370c-0.8-0.5-0.9-1.2-0.2-1.6l56.5-32.6
		c0.7-0.4,2-0.4,2.8,0.1l4.8,2.8C350.7,339.2,350.8,339.9,350.1,340.3z"/>
</g>
<path class="st3" d="M377.8,238.4l29.9,17.2c0.4,0.2,0.9,0.2,1.3,0l16.7-9.7c0.3-0.2,0.3-0.6,0-0.8l-29.9-17.2
	c-0.4-0.2-0.9-0.2-1.3,0l-16.7,9.7C377.4,237.8,377.4,238.2,377.8,238.4z"/>
<linearGradient id="SVGID_4_" gradientUnits="userSpaceOnUse" x1="-67.8555" y1="-71.1461" x2="-15.454" y2="-161.9081" gradientTransform="matrix(0.866 0.5 0.5 -0.866 129.0906 216.3392)">
	<stop  offset="0" style="stop-color:#FFE82A"/>
	<stop  offset="0.2861" style="stop-color:#FFBF2A"/>
	<stop  offset="0.771" style="stop-color:#FF7E2A"/>
	<stop  offset="1" style="stop-color:#FF652A"/>
</linearGradient>
<polygon class="st7" points="68.7,250.3 57.7,244 0.9,342.5 11.8,348.8 "/>
<ellipse transform="matrix(0.5 -0.866 0.866 0.5 -296.2573 178.3173)" class="st0" cx="6.3" cy="345.7" rx="6.3" ry="6.3"/>
<polygon class="st8" points="67.9,234.4 73.8,228.8 71.9,236.7 "/>
<path class="st0" d="M57.7,244l10.2-9.6c1.8-1.7,4.6,0,4,2.3l-3.3,13.6L57.7,244z"/>
</svg>
