<svg id="Layer_1" data-name="Layer 1" xmlns="http://www.w3.org/2000/svg" viewBox="0 0 120 120"><title>facebook-darkbg</title><style>svg:hover{cursor: pointer;}.f__fill{fill: #242444;}.bg__fill{fill: #fff}svg:hover .f__fill{fill: #3b5998;}</style><path d="M60,120A60,60,0,1,0,0,60a60,60,0,0,0,60,60" class="bg__fill"/><path d="M45.23,50.14h6.16V44.07c0-2.67.07-6.8,2-9.35,2-2.7,4.79-4.54,9.57-4.54,7.77,0,11,1.12,11,1.12l-1.54,9.24a20.57,20.57,0,0,0-5-.75c-2.4,0-4.54.87-4.54,3.3v7h9.83l-.69,9H62.94V90.54H51.39V59.17H45.23Z" class="f__fill"/>
<a xmlns="http://www.w3.org/2000/svg" id="anchor" xlink:href="https://www.facebook.com/codepoduk/" xmlns:xlink="http://www.w3.org/1999/xlink" target="_blank">
    <rect x="0" y="0" width="100%" height="100%" fill-opacity="0"/>
</a>
</svg>
