<svg id="Layer_1" data-name="Layer 1" xmlns="http://www.w3.org/2000/svg" viewBox="0 0 120 120"><title>github-color</title><path d="M102,60l-1.83,9.38L90,84.5,77.67,91.41l2.5,14.4L79,116.94a60.32,60.32,0,0,1-37.88,0l.42-8.34-15.33-3.28L9.67,79.17l14.83-.33-5.93-25.9,4.09-12.26L25.5,21.5l20.17,5,29,.17,18.58-6.08,3.42,19.75Z" style="fill:#fff"/><path d="M60,0A60.09,60.09,0,0,0,41,117.08c3,.55,4.1-1.3,4.1-2.9,0-1.43-.05-5.2-.08-10.22-16.69,3.63-20.21-8.05-20.21-8.05-2.73-6.94-6.66-8.79-6.66-8.79-5.45-3.73.41-3.65.41-3.65,6,.42,9.19,6.19,9.19,6.19,5.35,9.18,14,6.53,17.46,5,.55-3.88,2.1-6.53,3.81-8C35.73,85.11,21.72,80,21.72,56.94a23.24,23.24,0,0,1,6.18-16.12c-.62-1.52-2.68-7.63.59-15.9,0,0,5-1.62,16.5,6.16a56.8,56.8,0,0,1,30,0c11.45-7.77,16.48-6.16,16.48-6.16,3.27,8.27,1.21,14.38.6,15.9a23.2,23.2,0,0,1,6.17,16.12c0,23.08-14,28.16-27.39,29.65C73,88.44,75,92.1,75,97.71c0,8-.07,14.51-.07,16.48,0,1.61,1.08,3.48,4.13,2.89A60.1,60.1,0,0,0,60,0Z" style="fill-rule:evenodd"/>
<a xmlns="http://www.w3.org/2000/svg" id="anchor" xlink:href="https://github.com/codepoduk" xmlns:xlink="http://www.w3.org/1999/xlink" target="_blank">
    <rect x="0" y="0" width="100%" height="100%" fill-opacity="0"/>
</a>
</svg>
