<svg id="Layer_1" data-name="Layer 1" xmlns="http://www.w3.org/2000/svg" xmlns:xlink="http://www.w3.org/1999/xlink" viewBox="0 0 480.09 348.52"><defs><linearGradient id="New_Gradient_Swatch_1" x1="135.6" y1="-83.29" x2="135.6" y2="14.57" gradientTransform="translate(-84.69 103.78)" gradientUnits="userSpaceOnUse"><stop offset="0" stop-color="#f74e1e"/><stop offset="0.33" stop-color="#fa811f"/><stop offset="0.79" stop-color="#fec221"/><stop offset="1" stop-color="#ffdb22"/></linearGradient><linearGradient id="New_Gradient_Swatch_2" x1="99.86" y1="-71.26" x2="177.98" y2="6.87" gradientTransform="translate(-20.67 189.61) rotate(-45)" gradientUnits="userSpaceOnUse"><stop offset="0" stop-color="#2988e2"/><stop offset="0.19" stop-color="#2798ca"/><stop offset="0.74" stop-color="#21c289"/><stop offset="1" stop-color="#1fd370"/></linearGradient><linearGradient id="New_Gradient_Swatch_2-2" x1="138.79" y1="152.84" x2="341.3" y2="355.36" gradientTransform="matrix(1, 0, 0, 1, 0, 0)" xlink:href="#New_Gradient_Swatch_2"/><clipPath id="clip-path"><rect x="312.86" y="51.72" width="44.14" height="33.77" transform="translate(155.9 359.87) rotate(-70)" style="fill:none"/></clipPath><clipPath id="clip-path-2"><path d="M343.79,59.38a11.7,11.7,0,1,0,7,15,11.7,11.7,0,0,0-7-15h0" style="fill:none"/></clipPath><linearGradient id="linear-gradient" x1="-78" y1="-72.06" x2="-77" y2="-72.06" gradientTransform="matrix(23.41, 0, 0, -23.41, 2153.91, -1616.27)" gradientUnits="userSpaceOnUse"><stop offset="0" stop-color="#2988e2"/><stop offset="1" stop-color="#00d460"/></linearGradient><clipPath id="clip-path-3"><path d="M347.32,49.63a22.07,22.07,0,0,0-28.25,13.18l0,0a22.07,22.07,0,0,0,13.18,28.25l0,0Z" style="fill:none"/></clipPath><linearGradient id="linear-gradient-2" x1="-78" y1="-72.06" x2="-77" y2="-72.06" gradientTransform="matrix(44.14, 0, 0, -44.14, 3750.16, -3113.78)" gradientUnits="userSpaceOnUse"><stop offset="0" stop-color="#f74e1e"/><stop offset="1" stop-color="#ffdb22"/></linearGradient></defs><title>growing</title><path d="M198.65,89.71s20.24-12.44,19.73-23.31S208.72,69,208.72,69,213.33,76,198.65,89.71Z" style="fill:#ccc"/><path d="M176.6,55.31s19.75-13.2,29.42-8.2-6.43,7.68-6.43,7.68S195.2,47.7,176.6,55.31Z" style="fill:#ccc"/><circle cx="50.92" cy="69.42" r="48.93" transform="translate(-34.18 56.34) rotate(-45)" style="fill:url(#New_Gradient_Swatch_1)"/><path d="M2.84,106.67c3.47-3.47,10.31-1.93,15.27-6.89,8.44-8.44-.5-14.78,11.12-26.4S66.12,58,72.84,48.19c6.52-9.56,17.92-24,18.78-25.33,5.54-8.53,12.62-6,16.28-2.36,7.37,7.37-5,27.58-27.22,40.15C62.29,71,59.91,81.13,43.62,89.71c-15.05,7.92-20.75,26.95-34.53,30.24C3.67,121.25-5.34,114.86,2.84,106.67Z" style="fill:url(#New_Gradient_Swatch_2)"/><path d="M72.27,288.85a167.77,167.77,0,1,1,335.54,0" style="fill:url(#New_Gradient_Swatch_2-2)"/><rect x="288.43" y="14.22" width="10" height="157.31" rx="5" ry="5" transform="translate(49.46 -94.76) rotate(20)" style="fill:#9b7765"/><polygon points="480.09 123.13 323.32 25.38 298.5 93.58 480.09 123.13" style="fill:#eee"/><path d="M226,63.77C214.29,71.29,197.48,71,197.48,71l-4-6.26s7.58-15.6,18.62-22.68c13.59-8.71,38-9.09,38-9.09S239.62,55.06,226,63.77Z" style="fill:#ddd"/><circle cx="228.4" cy="46.96" r="6.05" transform="translate(10.77 130.69) rotate(-32.66)" style="fill:#ccc"/><g style="clip-path:url(#clip-path)"><g style="clip-path:url(#clip-path-2)"><rect x="328.09" y="58.67" width="23.42" height="23.42" transform="translate(157.44 365.62) rotate(-70)" style="fill:url(#linear-gradient)"/></g><g style="clip-path:url(#clip-path-3)"><rect x="307.37" y="55.57" width="44.14" height="22.1" transform="translate(154.17 353.4) rotate(-70)" style="fill:url(#linear-gradient-2)"/></g></g></svg>