<svg id="Layer_1" data-name="Layer 1" xmlns="http://www.w3.org/2000/svg" xmlns:xlink="http://www.w3.org/1999/xlink" viewBox="0 0 526.51 241.48"><defs><clipPath id="clip-path" transform="translate(0 0)"><rect x="241.55" y="27.79" width="284.96" height="185.91" style="fill:none"/></clipPath><clipPath id="clip-path-3" transform="translate(0 0)"><rect width="184.78" height="241.48" style="fill:none"/></clipPath><clipPath id="clip-path-4" transform="translate(0 0)"><path d="M120.67,56.71a64.07,64.07,0,1,0,.08,0h-.08" style="fill:none"/></clipPath><linearGradient id="linear-gradient" x1="-3.24" y1="-159.3" x2="-2.24" y2="-159.3" gradientTransform="matrix(0, -128.06, -128.06, 0, -20279.8, -230.66)" gradientUnits="userSpaceOnUse"><stop offset="0" stop-color="#2988e2"/><stop offset="1" stop-color="#00d460"/></linearGradient><clipPath id="clip-path-5" transform="translate(0 0)"><path d="M120.59,0A120.74,120.74,0,0,0,0,120.61v.28A120.73,120.73,0,0,0,120.61,241.48h.28Z" style="fill:none"/></clipPath><linearGradient id="linear-gradient-2" x1="-1.77" y1="-159.3" x2="-0.77" y2="-159.3" gradientTransform="matrix(0, -241.48, -241.48, 0, -38407.09, -186.93)" gradientUnits="userSpaceOnUse"><stop offset="0" stop-color="#f74e1e"/><stop offset="1" stop-color="#ffdb22"/></linearGradient></defs><title>logo-lockup-compact</title><g style="clip-path:url(#clip-path)"><g style="clip-path:url(#clip-path)"><path d="M241.55,69.81c0-25,18.95-42.05,43.34-42,17.93,0,28.28,9.79,34,19.91L304,55a22,22,0,0,0-19.13-11.85c-14.76,0-25.5,11.31-25.52,26.68s10.7,26.72,25.46,26.73A21.81,21.81,0,0,0,304,84.76L318.84,92c-5.86,10.11-16.12,20-34,20-24.39,0-43.27-17.12-43.25-42.12" transform="translate(0 0)" style="fill:#242444"/><path d="M325.06,81c0-16.71,11.74-30.84,31.13-30.82s31.2,14.18,31.19,30.89S375.64,112,356.13,112,325,97.83,325.06,81m46.22,0c0-9.15-5.47-17.08-15.1-17.09s-15,7.91-15,17.06,5.35,17.2,15,17.21,15.13-7.91,15.14-17.18" transform="translate(0 0)" style="fill:#242444"/><path d="M439.29,110.64v-7.56a22.86,22.86,0,0,1-18.18,9c-14.88,0-26.09-11.25-26.07-30.88,0-19.27,11.13-31,26.13-30.95a22.68,22.68,0,0,1,18.16,9l0-30,15.61,0-.09,81.34Zm0-19,0-20.85c-2.56-3.91-8.16-6.72-13.41-6.72C417.15,64,411,71,411,81.22s6.08,17.08,14.86,17.09c5.24,0,10.86-2.79,13.42-6.69" transform="translate(0 0)" style="fill:#242444"/><path d="M466.51,81.15c0-17.07,12.59-30.84,30.52-30.82,17.56,0,29.5,13.2,29.48,32.47v3.41l-43.78,0c1,7.44,6.94,13.67,16.94,13.68,5,0,12-2.18,15.74-5.84l6.82,10c-5.86,5.36-15.13,8.15-24.28,8.14-17.93,0-31.45-12.11-31.43-31M497,62.65c-9.63,0-13.79,7.18-14.53,13l29,0c-.36-5.61-4.25-13.05-14.5-13.06" transform="translate(0 0)" style="fill:#242444"/><path d="M245.3,212l.09-81.34,38,0c17.68,0,27.3,12,27.29,26.25s-9.78,26.21-27.35,26.19l-20.73,0,0,28.9ZM293,157c0-6.83-5.11-11-11.94-11l-18.41,0,0,21.95,18.41,0c6.83,0,12-4.26,12-11" transform="translate(0 0)" style="fill:#242444"/><path d="M320,182.61c0-16.71,11.74-30.84,31.13-30.82s31.2,14.18,31.19,30.89-11.74,31-31.25,30.94-31.08-14.18-31.06-31m46.22,0c0-9.15-5.47-17.08-15.1-17.09s-15,7.91-15,17.06,5.35,17.2,15,17.21,15.13-7.91,15.14-17.18" transform="translate(0 0)" style="fill:#242444"/><path d="M438.94,212.25v-7.56a22.86,22.86,0,0,1-18.18,9c-14.88,0-26.08-11.25-26.06-30.88,0-19.27,11.13-31,26.13-30.95a22.68,22.68,0,0,1,18.16,9l0-30,15.61,0-.09,81.34Zm0-19,0-20.85c-2.56-3.91-8.16-6.72-13.41-6.72-8.78,0-14.89,6.93-14.9,17.18s6.08,17.08,14.86,17.09c5.24,0,10.86-2.79,13.42-6.69" transform="translate(0 0)" style="fill:#242444"/></g></g><g style="clip-path:url(#clip-path-3)"><g style="clip-path:url(#clip-path-4)"><rect x="56.67" y="56.71" width="128.15" height="128.11" style="fill:url(#linear-gradient)"/></g><g style="clip-path:url(#clip-path-5)"><rect width="120.89" height="241.48" style="fill:url(#linear-gradient-2)"/></g></g></svg>