<svg id="Layer_1" data-name="Layer 1" xmlns="http://www.w3.org/2000/svg" xmlns:xlink="http://www.w3.org/1999/xlink" viewBox="0 0 959.77 241.49"><defs><clipPath id="clip-path" transform="translate(0 0)"><rect width="184.78" height="241.49" style="fill:none"/></clipPath><clipPath id="clip-path-2" transform="translate(0 0)"><path d="M120.67,56.71a64.07,64.07,0,1,0,.08,0h-.08" style="fill:none"/></clipPath><linearGradient id="linear-gradient" x1="-3.24" y1="-159.3" x2="-2.24" y2="-159.3" gradientTransform="matrix(0, -128.06, -128.06, 0, -20279.42, -230.66)" gradientUnits="userSpaceOnUse"><stop offset="0" stop-color="#2988e2"/><stop offset="1" stop-color="#00d460"/></linearGradient><clipPath id="clip-path-3" transform="translate(0 0)"><path d="M120.59,0A120.75,120.75,0,0,0,0,120.62v.28A120.73,120.73,0,0,0,120.61,241.49h.28Z" style="fill:none"/></clipPath><linearGradient id="linear-gradient-2" x1="-1.77" y1="-159.3" x2="-0.77" y2="-159.3" gradientTransform="matrix(0, -241.48, -241.48, 0, -38406.38, -186.93)" gradientUnits="userSpaceOnUse"><stop offset="0" stop-color="#f74e1e"/><stop offset="1" stop-color="#ffdb22"/></linearGradient><clipPath id="clip-path-4" transform="translate(0 0)"><rect x="255.19" y="64.23" width="704.58" height="113.03" style="fill:none"/></clipPath></defs><title>logo-lockup</title><g style="clip-path:url(#clip-path)"><g style="clip-path:url(#clip-path-2)"><rect x="56.67" y="56.71" width="128.16" height="128.12" style="fill:url(#linear-gradient)"/></g><g style="clip-path:url(#clip-path-3)"><rect width="120.9" height="241.49" style="fill:url(#linear-gradient-2)"/></g></g><g style="clip-path:url(#clip-path-4)"><g style="clip-path:url(#clip-path-4)"><path d="M255.19,120.36c0-33.39,25.3-56.16,57.88-56.13,23.94,0,37.77,13.07,45.41,26.6l-19.88,9.75C334,91.78,324.29,84.76,313,84.75c-19.71,0-34.06,15.11-34.08,35.63s14.29,35.68,34,35.71a29.13,29.13,0,0,0,25.59-15.77l19.86,9.63c-7.83,13.51-21.53,26.69-45.47,26.66-32.57,0-57.8-22.87-57.76-56.25" transform="translate(0 0)" style="fill:#242444"/><path d="M366.73,135.3c0-22.31,15.68-41.19,41.58-41.16,26.06,0,41.67,18.94,41.65,41.25,0,22.48-15.68,41.35-41.74,41.32-25.9,0-41.51-18.94-41.49-41.41m61.73.07c0-12.22-7.31-22.81-20.17-22.82s-20,10.56-20.06,22.78c0,12.38,7.14,23,20,23s20.21-10.56,20.22-22.94" transform="translate(0 0)" style="fill:#242444"/><path d="M519.29,174.88v-10.1a30.54,30.54,0,0,1-24.28,12c-19.87,0-34.84-15-34.81-41.24,0-25.73,14.87-41.35,34.9-41.33a30.3,30.3,0,0,1,24.25,12.08l0-40.07,20.85,0-.12,108.64Zm0-25.41,0-27.85c-3.42-5.22-10.9-9-17.9-9-11.73,0-19.88,9.26-19.9,22.94,0,13.52,8.12,22.81,19.85,22.83,7,0,14.5-3.73,17.93-8.94" transform="translate(0 0)" style="fill:#242444"/><path d="M555.64,135.5c0-22.8,16.82-41.19,40.76-41.16,23.45,0,39.4,17.63,39.37,43.37v4.56l-58.47-.06c1.29,9.94,9.26,18.25,22.62,18.27,6.68,0,16-2.92,21-7.79L630,166c-7.83,7.16-20.21,10.89-32.43,10.88-23.94,0-42-16.17-42-41.41m40.74-24.71c-12.87,0-18.42,9.59-19.4,17.41l38.76,0c-.48-7.49-5.68-17.43-19.36-17.45" transform="translate(0 0)" style="fill:#242444"/><path d="M692.89,175.07,693,66.43l50.82.06c23.61,0,36.46,16,36.44,35.06,0,18.89-13.07,35-36.52,35l-27.69,0,0,38.6Zm63.77-73.55c0-9.12-6.83-14.67-15.95-14.68l-24.59,0,0,29.32,24.59,0c9.12,0,16-5.68,16-14.64" transform="translate(0 0)" style="fill:#242444"/><path d="M786.25,135.75c0-22.32,15.68-41.19,41.58-41.16,26.06,0,41.67,18.94,41.65,41.25,0,22.48-15.68,41.35-41.74,41.33-25.9,0-41.51-18.94-41.49-41.41m61.73.07C848,123.6,840.67,113,827.8,113s-20,10.56-20.06,22.78c0,12.38,7.14,23,20,23S848,148.19,848,135.82" transform="translate(0 0)" style="fill:#242444"/><path d="M938.81,175.33v-10.1a30.53,30.53,0,0,1-24.28,12c-19.87,0-34.84-15-34.81-41.24,0-25.73,14.87-41.35,34.9-41.33a30.29,30.29,0,0,1,24.25,12.08l0-40.07,20.85,0-.12,108.64Zm0-25.41,0-27.85c-3.41-5.22-10.9-9-17.91-9-11.73,0-19.88,9.26-19.89,22.94,0,13.52,8.12,22.81,19.85,22.82,7,0,14.5-3.73,17.93-8.94" transform="translate(0 0)" style="fill:#242444"/></g></g></svg>