<svg id="Layer_1" data-name="Layer 1" xmlns="http://www.w3.org/2000/svg" xmlns:xlink="http://www.w3.org/1999/xlink" viewBox="0 0 120 120"><style>svg:hover{cursor: pointer;}.m__fill{fill: #fff;}.bg__fill{fill: #ed1c40}svg:hover .m__fill{fill: #ed1c40;}svg:hover .bg__fill{fill: #fff;}</style><defs><clipPath id="clip-path"><path d="M60.18,119.8A59.8,59.8,0,1,0,.36,60a59.81,59.81,0,0,0,59.82,59.8" style="clip-rule:evenodd" class="bg__fill"/></clipPath><clipPath id="clip-path-2"><rect x="-1138.21" y="-1556.55" width="2737.14" height="6527.32" class="bg__fill"/></clipPath><clipPath id="clip-path-3"><path d="M83.12,85.05a59.33,59.33,0,0,1-6.33-1.35,10.11,10.11,0,0,1-6.34-13.43c2.17-5.16,4.73-10.15,7.08-15.24a16.88,16.88,0,0,0,1.32-3.45c.13-.62-.12-1.78-.54-2a2.78,2.78,0,0,0-2.31.16,5.34,5.34,0,0,0-1.63,2.1Q69,62.33,63.7,72.82c-1,2-2.24,3.84-4.7,4.14-3.78.47-6-1.82-4.63-5.37,1.83-4.83,3.81-9.62,5.69-14.43a12.59,12.59,0,0,0,.75-2.73,2.64,2.64,0,0,0-1.76-3.17,2.77,2.77,0,0,0-3,1.84c-1.1,2.62-2.13,5.28-3.19,7.92-2.2,5.51-4.35,11-6.61,16.53-1.56,3.78-3.9,5.09-8,4.73a8,8,0,0,1-7.23-10q4.24-13.58,8.71-27.09a10.63,10.63,0,0,1,8-7.35,7.42,7.42,0,0,1,5,.41c1.47.68,3,1.31,4.38,2.08a3.06,3.06,0,0,0,3.7-.36c.82-.65,1.58-1.37,2.38-2A6.27,6.27,0,0,1,72,38.1c.42.38.85.77,1.25,1.17a1.73,1.73,0,0,0,2.43.27c2.43-1.56,5.12-1.42,7.73-.85a7,7,0,0,1,5.19,9c-1.4,4.56-3.35,9-5.15,13.39-1.53,3.78-3.35,7.45-3.87,11.57-.36,2.82.5,4.08,3.29,4.67,1.39.3,2.82.44,4.19.8a3.19,3.19,0,0,1,.1,6.24,38,38,0,0,1-4,.65" style="fill:none;clip-rule:evenodd"/></clipPath><clipPath id="clip-path-4"><rect x="-1138.21" y="-1556.55" width="2737.14" height="6527.32" style="fill:none"/></clipPath></defs><title>meetupArtboard 1</title><path d="M60.18,119.8A59.8,59.8,0,1,0,.36,60a59.81,59.81,0,0,0,59.82,59.8" style="fill-rule:evenodd" class="bg__fill"/><g style="clip-path:url(#clip-path)"><rect x="-1138.21" y="-1556.55" width="2737.14" height="6527.32" class="bg__fill"/><g style="clip-path:url(#clip-path-2)"><rect x="-9.14" y="-9.3" width="138.65" height="138.61" class="bg__fill"/></g></g><g style="clip-path:url(#clip-path-3)"><g style="clip-path:url(#clip-path-4)"><rect x="21.25" y="26.73" width="77.86" height="67.83" class="m__fill"/></g></g>
<a xmlns="http://www.w3.org/2000/svg" id="anchor" xlink:href="https://www.meetup.com/codepod/" xmlns:xlink="http://www.w3.org/1999/xlink" target="_blank">
    <rect x="0" y="0" width="100%" height="100%" fill-opacity="0"/>
</a>
</svg>
