<svg id="Layer_1" data-name="Layer 1" xmlns="http://www.w3.org/2000/svg" xmlns:xlink="http://www.w3.org/1999/xlink" viewBox="0 0 480.09 348.52"><defs><linearGradient id="linear-gradient" x1="449.89" y1="290.28" x2="449.89" y2="144.94" gradientTransform="matrix(-1, 0, 1.15, 1, 543.14, 0)" gradientUnits="userSpaceOnUse"><stop offset="0" stop-color="#2988e2"/><stop offset="0.19" stop-color="#2798ca"/><stop offset="0.74" stop-color="#21c289"/><stop offset="1" stop-color="#1fd370"/></linearGradient><linearGradient id="linear-gradient-2" x1="150.17" y1="290.28" x2="150.17" y2="85.6" gradientUnits="userSpaceOnUse"><stop offset="0" stop-color="#f74e1e"/><stop offset="0.33" stop-color="#fa811f"/><stop offset="0.79" stop-color="#fec221"/><stop offset="1" stop-color="#ffdb22"/></linearGradient></defs><title>sharing</title><ellipse cx="172.66" cy="49.33" rx="43.66" ry="31.65" transform="translate(43.61 174.19) rotate(-60)" style="fill:#9b7765"/><path d="M430.87,290.28h0c26.67,0,44.55-7,44.55-7l-38.07-65.87c-15.4-26.67-53.43-72.49-90.38-72.49h0c-26.67,0-28,35.5-28,48.5v96.83Z" style="fill:url(#linear-gradient)"/><rect x="229.21" y="85.63" width="43.03" height="6.97" rx="2.06" ry="2.06" style="fill:#9b7765"/><path d="M201.94,192.23v-.57h9.33a4.29,4.29,0,0,0,3.25-2.06l27.42-96c2.54-4.4,1-8-3.38-8H231a5.44,5.44,0,0,0-4.12,2.61L201.94,154V140.69A55.25,55.25,0,0,0,146.85,85.6h-8.91c-30.3,0-52,24.94-55.09,55.09-1.08,10.72-3.92,19.36-4,42.56h-12a4.29,4.29,0,0,0-3.25,2.06l-27.42,96c-2.54,4.4-1,8,3.38,8h7.61a5.44,5.44,0,0,0,4.12-2.61l29-76.77c.87,6.39,1.89,11,2.46,16.36,3.77,35,28.8,64,64,64H265.33Z" style="fill:url(#linear-gradient-2)"/><path d="M285.57,290.28H250a5.44,5.44,0,0,1-4.12-2.61l-55.1-95.44c-2.54-4.4-1-8,3.38-8h36.16a4.29,4.29,0,0,1,3.25,2.06l55.42,96C291.49,286.68,290,290.28,285.57,290.28Z" style="fill:#ddd"/><rect x="245.33" y="283.31" width="123.4" height="6.97" rx="3.48" ry="3.48" style="fill:#ccc"/><path d="M168,1.59c-19.57-3.36-55.26-6.48-63.35,47.89-4.37,29.38-95,45-104,106.45C-9.15,224,84.93,263.4,103.87,200.09c8.4-28.08.81-26.94.81-50.15,0-20.23,29.37-20.71,36.88-46.73,7.32-25.37,12.8-68.5,52.93-91.67C194.49,11.54,178.44,3.38,168,1.59Z" style="fill:#3d322d"/><rect x="5.94" y="282.31" width="43.03" height="6.97" rx="2.06" ry="2.06" transform="translate(54.91 571.59) rotate(-180)" style="fill:#9b7765"/><path d="M315.86,52H229.69c-6.6,0,11-5.4,11-12V14a12,12,0,0,1,12-12h63.16a12,12,0,0,1,12,12V40A12,12,0,0,1,315.86,52Z" style="fill:#ddd"/><text transform="translate(253.73 37.29)" style="font-size:38.87043380737305px;fill:#45457c;font-family:Consolas-Bold, Consolas;font-weight:700">&lt;/&gt;</text><ellipse cx="379.83" cy="127.34" rx="43.66" ry="31.65" transform="translate(141.06 449.01) rotate(-71.95)" style="fill:#ffe5d4"/><path d="M407.71,89.31c16.87,10.46,46.79,30.3,30.91,73.15-10.32,27.85,59.8,86.51,36.8,144.16C450,370.5,348.77,357.59,364,293.3c6.77-28.52,12.77-23.73,24.37-43.83,10.12-17.52-15.08-32.62-8.58-58.91,6.34-25.63,18.62-63.1-4.55-103.23A34.11,34.11,0,0,1,407.71,89.31Z" style="fill:#7c5748"/></svg>