<svg class="whoweare_socialicon icon" data-name="Twitter Layer 1" xmlns="http://www.w3.org/2000/svg" viewBox="0 0 120 120"><style>svg:hover{cursor: pointer;}.icon__fill{fill: #242444;}svg:hover .icon__fill{fill: #1da1f2;}</style><title>twitter-darkbg</title><path d="M60,120A60,60,0,1,0,0,60a60,60,0,0,0,60,60" style="fill:#fff"/><path d="M90.1,44.28A24.66,24.66,0,0,1,83,46.22a12.34,12.34,0,0,0,5.42-6.82,24.63,24.63,0,0,1-7.83,3,12.34,12.34,0,0,0-21,11.24A35,35,0,0,1,34.18,40.75,12.35,12.35,0,0,0,38,57.22a12.34,12.34,0,0,1-5.59-1.54v.15a12.33,12.33,0,0,0,9.89,12.09,12,12,0,0,1-3.25.43,12.22,12.22,0,0,1-2.32-.22A12.33,12.33,0,0,0,48.25,76.7,24.94,24.94,0,0,1,30,81.81a34.93,34.93,0,0,0,18.9,5.54C71.58,87.34,84,68.56,84,52.26c0-.54,0-1.07,0-1.6a25,25,0,0,0,6.15-6.38" class="icon__fill"/>
<a xmlns="http://www.w3.org/2000/svg" id="anchor" xlink:href="https://twitter.com/codepoduk" xmlns:xlink="http://www.w3.org/1999/xlink" target="_blank">
    <rect x="0" y="0" width="100%" height="100%" fill-opacity="0"/>
</a>
</svg>
